<?xml version="1.0" encoding="UTF-8" standalone="no"?>
<svg
   width="31.358576mm"
   height="31.368582mm"
   viewBox="0 0 111.11306 111.14852"
   version="1.1"
   id="svg10"
   sodipodi:docname="blogger.svg"
   inkscape:version="1.1.2 (b8e25be833, 2022-02-05)"
   xmlns:inkscape="http://www.inkscape.org/namespaces/inkscape"
   xmlns:sodipodi="http://sodipodi.sourceforge.net/DTD/sodipodi-0.dtd"
   xmlns="http://www.w3.org/2000/svg"
   xmlns:svg="http://www.w3.org/2000/svg">
  <defs
     id="defs14" />
  <sodipodi:namedview
     id="namedview12"
     pagecolor="#ffffff"
     bordercolor="#666666"
     borderopacity="1.0"
     inkscape:pageshadow="2"
     inkscape:pageopacity="0.0"
     inkscape:pagecheckerboard="0"
     inkscape:document-units="mm"
     showgrid="false"
     fit-margin-top="0"
     fit-margin-left="0"
     fit-margin-right="0"
     fit-margin-bottom="0"
     inkscape:zoom="4.5670643"
     inkscape:cx="48.937345"
     inkscape:cy="59.11894"
     inkscape:window-width="2560"
     inkscape:window-height="1387"
     inkscape:window-x="-8"
     inkscape:window-y="-8"
     inkscape:window-maximized="1"
     inkscape:current-layer="svg10" />
  <path
     fill="none"
     d="m -117.0502,53.75436 v -171.89999 h 1020 v 343.79998 h -1020 V 53.75436 Z"
     id="path4" />
  <path
     id="path911"
     style="fill:#ffffff;stroke-width:1"
     d="M 43.226519,0.00177336 C 30.888038,-0.03502445 27.324327,0.49068805 22.198686,2.5322912 11.398953,6.8339705 3.6388944,15.900025 0.80830538,27.522526 0.27665944,29.705476 0.1721685,33.202963 0.04658663,53.300113 -0.11073993,78.47759 0.06273975,82.174171 1.6359416,87.16364 c 1.2997988,4.122328 2.6120278,6.650156 5.313721,10.235597 5.1468054,6.830353 12.8601304,11.763033 20.5719004,13.156123 3.669922,0.66311 48.948674,0.82842 53.585811,0.19592 8.06475,-1.1001 14.383097,-4.3323 20.311896,-10.3894 4.28899,-4.381812 6.97407,-9.124821 8.72864,-15.419309 0.7289,-2.614903 0.79111,-3.887306 0.92467,-19.240725 0.10081,-11.58796 0.0161,-17.015479 -0.28563,-18.38562 -0.43735,-1.985929 -1.67625,-3.830659 -3.09083,-4.599609 -0.4353,-0.23661 -3.2246,-0.538206 -6.19812,-0.670166 -4.982682,-0.22115 -5.540926,-0.317944 -7.113648,-1.239625 -2.494678,-1.461979 -3.18104,-3.0418 -3.187865,-7.32788 C 91.183455,25.289546 87.775268,17.687117 81.041459,10.825138 76.244196,5.9365374 70.89303,2.628608 64.785359,0.77447867 63.323187,0.33059867 60.04849,0.17897023 49.082232,0.04938055 46.931359,0.02396492 44.989158,0.00703367 43.226519,0.00177336 Z M 45.482378,29.49274 c 2.72084,0 4.784152,0.0016 6.373901,0.01648 1.589749,0.01485 2.706248,0.0436 3.532105,0.09705 0.412928,0.02672 0.752895,0.05989 1.0437,0.100709 0.290806,0.04082 0.532489,0.08859 0.747071,0.146484 0.214582,0.05789 0.401678,0.125316 0.585937,0.203247 0.184259,0.07793 0.36413,0.166398 0.563966,0.267334 0.288781,0.145889 0.557116,0.299617 0.805664,0.461425 0.248547,0.161808 0.478981,0.333032 0.688477,0.512695 0.209494,0.179665 0.399666,0.36817 0.571285,0.567628 0.171628,0.199457 0.324665,0.408693 0.4596,0.629882 0.134934,0.22119 0.250303,0.454606 0.349734,0.699464 0.09942,0.244857 0.182081,0.502242 0.247191,0.772705 0.06506,0.270462 0.112687,0.553434 0.144646,0.85144 0.03197,0.298006 0.04762,0.610014 0.04762,0.9375 0,0.295774 -0.01406,0.580706 -0.04397,0.855102 -0.02991,0.274396 -0.07491,0.538335 -0.135497,0.792847 -0.06066,0.254512 -0.136678,0.499964 -0.228881,0.736084 -0.09216,0.23612 -0.201291,0.463761 -0.325932,0.682983 -0.12464,0.219223 -0.26505,0.429728 -0.422972,0.633545 -0.157921,0.203818 -0.333459,0.399694 -0.525515,0.5896 -0.192047,0.189907 -0.401019,0.373659 -0.628049,0.551147 -0.227031,0.177489 -0.471393,0.349794 -0.734253,0.516358 -0.141143,0.08944 -0.275634,0.168223 -0.422974,0.238037 -0.147339,0.06982 -0.307379,0.130221 -0.501709,0.183105 -0.194329,0.05289 -0.422843,0.09868 -0.704956,0.13733 -0.282112,0.03864 -0.618364,0.06995 -1.029052,0.09704 -0.821376,0.0542 -1.940685,0.08754 -3.521119,0.111695 -1.580433,0.02416 -3.622009,0.03927 -6.287841,0.05493 -3.292241,0.01935 -6.249384,-0.0032 -8.481446,-0.05676 -1.116031,-0.02678 -2.051236,-0.06107 -2.755737,-0.10254 -0.704501,-0.04148 -1.177976,-0.08901 -1.373291,-0.142822 -0.257684,-0.07102 -0.504554,-0.160835 -0.741578,-0.267334 -0.237022,-0.1065 -0.463929,-0.2298 -0.679321,-0.368042 -0.215391,-0.138242 -0.420614,-0.291506 -0.613403,-0.457764 -0.192789,-0.166257 -0.372775,-0.345954 -0.541992,-0.536498 -0.169216,-0.190545 -0.32774,-0.391314 -0.472412,-0.602417 -0.144672,-0.211105 -0.276351,-0.433077 -0.395508,-0.661011 -0.119157,-0.227935 -0.225932,-0.462088 -0.318604,-0.703125 -0.09267,-0.241038 -0.17099,-0.487503 -0.236206,-0.737916 -0.06521,-0.250412 -0.117021,-0.505658 -0.153808,-0.761718 -0.03679,-0.25606 -0.05853,-0.512895 -0.06592,-0.770875 -0.0074,-0.257978 8.23e-4,-0.516534 0.0238,-0.772704 0.02298,-0.25617 0.06104,-0.511086 0.115356,-0.761719 0.05432,-0.250634 0.12394,-0.496547 0.210571,-0.737915 0.08663,-0.241368 0.189535,-0.478411 0.309448,-0.706787 0.119914,-0.228376 0.257821,-0.449356 0.411988,-0.661011 0.154166,-0.211655 0.325136,-0.413042 0.514526,-0.604248 0.242094,-0.24442 0.462974,-0.459023 0.686646,-0.648194 0.223672,-0.18917 0.450799,-0.353408 0.706786,-0.494384 0.255989,-0.140976 0.539865,-0.259048 0.878907,-0.358887 0.339042,-0.09984 0.732001,-0.181434 1.204834,-0.247193 0.472834,-0.06576 1.025376,-0.116905 1.68274,-0.155639 0.657363,-0.03874 1.419989,-0.06546 2.312622,-0.08423 1.785264,-0.03753 4.092035,-0.04211 7.122802,-0.04211 z m 9.984741,39.918822 c 5.556586,-0.0047 9.717324,-0.0075 12.86499,0.02016 1.573837,0.01369 2.894465,0.03459 4.010006,0.06778 1.11555,0.03319 2.02634,0.07875 2.779547,0.139162 0.753206,0.06038 1.347881,0.135478 1.834715,0.230709 0.486835,0.09524 0.864619,0.210113 1.181035,0.347907 0.316406,0.137793 0.572859,0.299015 0.814818,0.487059 0.24195,0.188044 0.470794,0.402197 0.73425,0.648188 0.186047,0.173718 0.356475,0.35624 0.514529,0.545662 0.158043,0.189413 0.3036,0.386953 0.433959,0.589594 0.130359,0.20264 0.246741,0.411019 0.349725,0.624394 0.102984,0.213375 0.191409,0.430218 0.267337,0.651853 0.07594,0.221634 0.139416,0.448256 0.188597,0.675656 0.04922,0.2274 0.08531,0.455962 0.108038,0.686644 0.02278,0.23069 0.03084,0.462478 0.02747,0.693975 -0.0037,0.231487 -0.01847,0.462318 -0.04762,0.692137 -0.02916,0.229819 -0.07172,0.45916 -0.126338,0.684816 -0.05466,0.225647 -0.121603,0.449325 -0.201422,0.668334 -0.07978,0.21901 -0.171825,0.432825 -0.276487,0.642703 -0.104663,0.209878 -0.222357,0.415135 -0.351563,0.613397 -0.129206,0.198272 -0.271378,0.390788 -0.4248,0.57495 -0.153431,0.184172 -0.318881,0.359756 -0.496219,0.527344 -0.177337,0.167597 -0.364865,0.325716 -0.5658,0.474244 -0.200925,0.148528 -0.414825,0.286837 -0.639037,0.413822 l -3.685913,0.600581 -19.213254,0.225225 c -4.220766,0.04941 -7.684963,0.06572 -10.52124,0.05859 -2.836278,-0.0075 -5.044995,-0.03769 -6.75293,-0.08784 -1.707934,-0.05025 -2.916094,-0.11985 -3.751831,-0.199585 -0.417869,-0.03984 -0.742755,-0.08166 -0.990601,-0.126346 -0.247845,-0.04472 -0.417502,-0.09131 -0.527343,-0.139154 -0.221219,-0.09639 -0.440527,-0.215484 -0.655518,-0.351562 -0.214991,-0.136088 -0.425968,-0.290128 -0.629883,-0.4596 C 31.514422,80.462889 31.316724,80.27777 31.128737,80.081214 30.940749,79.884658 30.76311,79.677827 30.5959,79.460486 30.42869,79.243155 30.272395,79.016645 30.130812,78.78483 29.989228,78.553014 29.86106,78.314364 29.749953,78.074383 c -0.111107,-0.239991 -0.204372,-0.481416 -0.280152,-0.723272 -0.07578,-0.241856 -0.132854,-0.484013 -0.168457,-0.721434 -0.03392,-0.226163 -0.04923,-0.463154 -0.04761,-0.706791 0.0016,-0.243628 0.02049,-0.493397 0.05493,-0.747066 0.03443,-0.253668 0.08378,-0.510947 0.148315,-0.767212 0.06453,-0.256266 0.142466,-0.512128 0.234375,-0.763547 0.0919,-0.251428 0.198374,-0.498778 0.314941,-0.737916 0.116567,-0.239147 0.244185,-0.469059 0.38269,-0.688481 0.138507,-0.219422 0.28722,-0.426628 0.444947,-0.618891 0.157726,-0.192271 0.323819,-0.369675 0.498047,-0.527343 0.219622,-0.19876 0.424084,-0.373697 0.655517,-0.527344 0.231434,-0.153656 0.489997,-0.286584 0.818482,-0.401006 0.328485,-0.114413 0.727017,-0.210094 1.237793,-0.291141 0.510776,-0.081 1.135145,-0.147881 1.913452,-0.201412 0.778307,-0.05353 1.710718,-0.09445 2.841797,-0.126347 1.131079,-0.03187 2.45923,-0.05344 4.02832,-0.06956 3.138182,-0.03225 7.238103,-0.03966 12.63977,-0.04397 z" />
</svg>
