<?xml version="1.0" encoding="UTF-8" standalone="no"?>
<!-- Generator: Adobe Illustrator 16.0.0, SVG Export Plug-In . SVG Version: 6.00 Build 0)  -->

<svg
   xmlns:dc="http://purl.org/dc/elements/1.1/"
   xmlns:cc="http://creativecommons.org/ns#"
   xmlns:rdf="http://www.w3.org/1999/02/22-rdf-syntax-ns#"
   xmlns:svg="http://www.w3.org/2000/svg"
   xmlns="http://www.w3.org/2000/svg"
   xmlns:sodipodi="http://sodipodi.sourceforge.net/DTD/sodipodi-0.dtd"
   xmlns:inkscape="http://www.inkscape.org/namespaces/inkscape"
   version="1.1"
   id="Layer_1"
   x="0px"
   y="0px"
   width="46.676369"
   height="46.67535"
   viewBox="0 0 46.676369 46.67535"
   enable-background="new 0 0 97 97"
   xml:space="preserve"
   sodipodi:docname="git.svg"
   inkscape:version="0.92.4 (5da689c313, 2019-01-14)"><metadata
   id="metadata41"><rdf:RDF><cc:Work
       rdf:about=""><dc:format>image/svg+xml</dc:format><dc:type
         rdf:resource="http://purl.org/dc/dcmitype/StillImage" /><dc:title></dc:title></cc:Work></rdf:RDF></metadata><defs
   id="defs39" /><sodipodi:namedview
   pagecolor="#ffffff"
   bordercolor="#666666"
   borderopacity="1"
   objecttolerance="10"
   gridtolerance="10"
   guidetolerance="10"
   inkscape:pageopacity="0"
   inkscape:pageshadow="2"
   inkscape:window-width="691"
   inkscape:window-height="480"
   id="namedview37"
   showgrid="false"
   fit-margin-top="0"
   fit-margin-left="0"
   fit-margin-right="0"
   fit-margin-bottom="0"
   inkscape:zoom="2.4329897"
   inkscape:cx="23.339184"
   inkscape:cy="23.338678"
   inkscape:window-x="0"
   inkscape:window-y="0"
   inkscape:window-maximized="0"
   inkscape:current-layer="g34" />
<g
   id="g34"
   transform="translate(-25.160816,-25.163324)">
	<path
   d="M 70.956749,46.421889 50.577603,26.043759 c -1.173405,-1.173913 -3.076759,-1.173913 -4.25118,0 l -4.231368,4.232384 5.367691,5.367692 c 1.247568,-0.421613 2.678005,-0.138679 3.672097,0.855927 1.000188,1.000695 1.280585,2.443322 0.848306,3.695462 l 5.174155,5.173649 c 1.25214,-0.431772 2.695784,-0.15239 3.695464,0.848814 1.39691,1.39691 1.39691,3.660413 0,5.058339 -1.397926,1.397419 -3.661429,1.397419 -5.059863,0 -1.050478,-1.051492 -1.310557,-2.595713 -0.777699,-3.890015 L 50.189515,42.56083 v 12.697661 c 0.340338,0.168646 0.661882,0.393167 0.945328,0.676612 1.39691,1.396912 1.39691,3.660414 0,5.058849 -1.39691,1.396402 -3.661937,1.396402 -5.057833,0 -1.396908,-1.398943 -1.396908,-3.662445 0,-5.058849 0.345418,-0.344909 0.74519,-0.606004 1.171883,-0.780746 V 42.338339 C 46.8222,42.163599 46.423446,41.905043 46.07701,41.557594 45.018915,40.500004 44.764424,38.94664 45.306934,37.647259 L 40.015435,32.354746 26.041251,46.327408 c -1.173913,1.174928 -1.173913,3.078282 0,4.252195 l 20.380162,20.378638 c 1.173405,1.173913 3.076251,1.173913 4.251179,0 L 70.956749,50.674084 c 1.173913,-1.173912 1.173913,-3.078282 0,-4.252195 z"
   id="path32"
   inkscape:connector-curvature="0"
   style="fill:#ffffff;stroke-width:0.50796747" />
</g>
</svg>