<?xml version="1.0" encoding="UTF-8" standalone="no"?>
<svg
   xmlns:dc="http://purl.org/dc/elements/1.1/"
   xmlns:cc="http://creativecommons.org/ns#"
   xmlns:rdf="http://www.w3.org/1999/02/22-rdf-syntax-ns#"
   xmlns:svg="http://www.w3.org/2000/svg"
   xmlns="http://www.w3.org/2000/svg"
   xmlns:sodipodi="http://sodipodi.sourceforge.net/DTD/sodipodi-0.dtd"
   xmlns:inkscape="http://www.inkscape.org/namespaces/inkscape"
   width="45.966103"
   height="44.832718"
   viewBox="0 0 45.966103 44.832719"
   version="1.1"
   id="svg3758"
   sodipodi:docname="github.svg"
   inkscape:version="0.92.4 (5da689c313, 2019-01-14)">
  <metadata
     id="metadata3764">
    <rdf:RDF>
      <cc:Work
         rdf:about="">
        <dc:format>image/svg+xml</dc:format>
        <dc:type
           rdf:resource="http://purl.org/dc/dcmitype/StillImage" />
        <dc:title></dc:title>
      </cc:Work>
    </rdf:RDF>
  </metadata>
  <defs
     id="defs3762" />
  <sodipodi:namedview
     pagecolor="#ffffff"
     bordercolor="#666666"
     borderopacity="1"
     objecttolerance="10"
     gridtolerance="10"
     guidetolerance="10"
     inkscape:pageopacity="0"
     inkscape:pageshadow="2"
     inkscape:window-width="1920"
     inkscape:window-height="1027"
     id="namedview3760"
     showgrid="false"
     fit-margin-top="0"
     fit-margin-left="0"
     fit-margin-right="0"
     fit-margin-bottom="0"
     inkscape:zoom="9.8333333"
     inkscape:cx="11.983052"
     inkscape:cy="10.82459"
     inkscape:window-x="-8"
     inkscape:window-y="-8"
     inkscape:window-maximized="1"
     inkscape:current-layer="svg3758" />
  <path
     d="M 22.983052,0 C 10.292577,0 0,10.290659 0,22.983049 c 0,10.154678 6.5846446,18.769492 15.718494,21.809 1.147236,0.212594 1.518796,-0.499881 1.518796,-1.105101 V 39.40827 c -6.39312,1.390475 -7.7242218,-2.712 -7.7242218,-2.712 -1.0457287,-2.656458 -2.5530339,-3.363187 -2.5530339,-3.363187 -2.0857119,-1.426863 0.1589662,-1.39622 0.1589662,-1.39622 2.3078813,0.160882 3.5221525,2.36917 3.5221525,2.36917 2.049323,3.512577 5.376119,2.497492 6.688069,1.909508 0.204931,-1.484321 0.800576,-2.499406 1.459423,-3.072068 C 13.684494,32.559321 8.3179495,30.588525 8.3179495,21.784101 c 0,-2.510899 0.8982543,-4.560221 2.3672545,-6.169034 -0.23749,-0.580322 -1.0246612,-2.918847 0.224086,-6.0828466 0,0 1.930576,-0.616712 6.322254,2.3557626 1.832898,-0.509458 3.797949,-0.764187 5.751508,-0.773763 1.953559,0.0096 3.920525,0.264305 5.757254,0.773763 4.387847,-2.9724746 6.314594,-2.3557626 6.314594,-2.3557626 1.25066,3.1659146 0.46349,5.5044386 0.226,6.0828466 1.474745,1.608813 2.365339,3.66005 2.365339,6.169034 0,8.827406 -5.37612,10.77139 -10.493679,11.34022 0.823559,0.712475 1.576254,2.11061 1.576254,4.255696 v 6.306931 c 0,0.610966 0.36773,1.329187 1.53412,1.103187 9.126185,-3.043339 15.70317,-11.656238 15.70317,-21.807086 C 45.966104,10.290659 35.675442,0 22.983052,0 Z"
     id="path3756"
     inkscape:connector-curvature="0"
     style="stroke-width:1.91525435;fill:#ffffff" />
</svg>
